HIERARCHY
ROOT Hips
{
	OFFSET 0.00000 0.00000 0.00000
	CHANNELS 6 Xposition Yposition Zposition Zrotation Yrotation Xrotation 
	JOINT LHipJoint
	{
		OFFSET 0 0 0
		CHANNELS 3 Zrotation Yrotation Xrotation
		JOINT LeftHip
		{
			OFFSET 1.98141 -1.79044 0.80905
			CHANNELS 3 Zrotation Yrotation Xrotation
			JOINT LeftKnee
			{
				OFFSET 2.48669 -6.83213 0.00000
				CHANNELS 3 Zrotation Yrotation Xrotation
				JOINT LeftAnkle
				{
					OFFSET 2.68940 -7.38907 0.00000
					CHANNELS 3 Zrotation Yrotation Xrotation
					JOINT LeftToe
					{
						OFFSET 0.12857 -0.35324 2.34549
						CHANNELS 3 Zrotation Yrotation Xrotation
						End Site
						{
							OFFSET 0.00000 -0.00000 1.19593
						}
					}
				}
			}
		}
	}
	JOINT RHipJoint
	{
		OFFSET 0 0 0
		CHANNELS 3 Zrotation Yrotation Xrotation
		JOINT RightHip
		{
			OFFSET -1.80120 -1.79044 0.80905
			CHANNELS 3 Zrotation Yrotation Xrotation
			JOINT RightKnee
			{
				OFFSET -2.77667 -7.62884 0.00000
				CHANNELS 3 Zrotation Yrotation Xrotation
				JOINT RightAnkle
				{
					OFFSET -2.72618 -7.49012 0.00000
					CHANNELS 3 Zrotation Yrotation Xrotation
					JOINT RightToe
					{
						OFFSET -0.15954 -0.43820 2.14670
						CHANNELS 3 Zrotation Yrotation Xrotation
						End Site
						{
							OFFSET -0.00000 -0.00000 1.10438
						}
					}
				}
			}
		}
	}
	JOINT lowerback
	{
		OFFSET 0 0 0
		CHANNELS 3 Zrotation Yrotation Xrotation
		JOINT Chest
		{
			OFFSET -0.00825 2.03905 -0.05153
			CHANNELS 3 Zrotation Yrotation Xrotation
			JOINT Chest2
			{
				OFFSET 0.01521 2.04267 0.00496
				CHANNELS 3 Zrotation Yrotation Xrotation
				JOINT lowerneck
				{
					OFFSET 0 0 0
					CHANNELS 3 Zrotation Yrotation Xrotation
					JOINT Neck
					{
						OFFSET 0.04513 1.36240 0.17993
						CHANNELS 3 Zrotation Yrotation Xrotation
						JOINT Head
						{
							OFFSET -0.04116 1.35857 0.01300
							CHANNELS 3 Zrotation Yrotation Xrotation
							End Site
							{
								OFFSET -0.01884 1.44433 -0.01572
							}
						}
					}
				}
				JOINT LeftCollar
				{
					OFFSET 0 0 0
					CHANNELS 3 Zrotation Yrotation Xrotation
					JOINT LeftShoulder
					{
						OFFSET 2.95523 0.86449 0.36905
CHANNELS 3 Zrotation Xrotation Yrotation
						JOINT LeftElbow
						{
OFFSET 0 -5.828450 -0.000000
CHANNELS 3 Zrotation Xrotation Yrotation
							JOINT LeftWrist
							{
OFFSET 0 -3.496910 0.000000
CHANNELS 3 Zrotation Xrotation Yrotation
								JOINT lhand
								{
									OFFSET 0 0 0
CHANNELS 3 Zrotation Xrotation Yrotation
									JOINT LFingers
									{
OFFSET 0 -0.675000 0.000000
CHANNELS 3 Zrotation Xrotation Yrotation
										End Site
										{
OFFSET 0 -0.544200 0.000000
										}
									}
								}
								JOINT LThumb
								{
OFFSET 0 0.000000 0.000000
CHANNELS 3 Zrotation Xrotation Yrotation
									End Site
									{
OFFSET 0 -0.552510 0.552510
									}
								}
							}
						}
					}
				}
				JOINT RightCollar
				{
					OFFSET 0 0 0
					CHANNELS 3 Zrotation Yrotation Xrotation
					JOINT RightShoulder
					{
						OFFSET -3.41586 0.85389 0.25405
CHANNELS 3 Zrotation Xrotation Yrotation
						JOINT RightElbow
						{
OFFSET 0 -5.458590 0.000000
CHANNELS 3 Zrotation Xrotation Yrotation
							JOINT RightWrist
							{
OFFSET 0 -3.584910 0.000000
CHANNELS 3 Zrotation Xrotation Yrotation
								JOINT rhand
								{
									OFFSET 0 0 0
CHANNELS 3 Zrotation Xrotation Yrotation
									JOINT RFingers
									{
OFFSET 0 -0.683730 0.000000
CHANNELS 3 Zrotation Xrotation Yrotation
										End Site
										{
OFFSET 0 -0.551240 0.000000
										}
									}
								}
								JOINT RThumb
								{
OFFSET 0 0.000000 0.000000
CHANNELS 3 Zrotation Xrotation Yrotation
									End Site
									{
OFFSET 0 -0.559660 0.559660
									}
								}
							}
						}
					}
				}
			}
		}
	}
}
MOTION
Frames: 6
Frame Time: 0.008333333333333333
0.080400 18.149100 -30.964000 -2.757900 -0.759100 5.054100 0.000000 0.000000 0.000000 -18.700600 -10.334000 -5.986300 1.330600 7.304700 20.621400 0.541600 3.578200 -15.668300 0.237300 -3.134900 -8.654500 0.000000 0.000000 0.000000 19.886600 11.074000 -16.605600 -4.921600 -13.294900 40.482800 -3.742700 2.339600 -36.142700 -0.257500 -3.264600 9.016300 -0.383000 1.481600 -5.676800 0.375900 1.988000 -2.255100 0.724800 0.996700 0.835300 1.369700 0.127000 -5.191900 4.352400 -0.376600 9.333600 1.190200 0.062200 3.987400 -0.000000 0.000000 0.000000 11.233000 4.777700 -38.613900 20.236500 -30.926200 5.652400 44.175000 12.117500 -53.876600 0.000000 0.000000 0.000000 -7.125000 0.000000 0.000000 178.422000 2.359100 -1.512300 -0.000000 0.000000 0.000000 -9.261100 7.722400 32.032700 -16.404900 -26.066500 -3.822100 -24.152700 -17.562900 -47.466300 0.000000 0.000000 0.000000 7.125000 0.000000 -0.000000 7.602500 -19.719200 9.789300
0.396165 18.118156 -31.013669 -2.395785 -1.336376 5.065394 0.000000 0.000000 0.000000 -19.916351 -7.514685 -7.806323 1.443494 7.595366 21.491604 0.551608 1.280375 -14.552586 0.395266 -4.033674 -11.171803 0.000000 0.000000 0.000000 17.914161 9.427085 -18.157237 -5.135380 -13.534604 41.404166 -3.314523 4.640190 -33.467819 -0.441009 -4.256723 11.800713 -0.974585 1.591167 -5.409735 0.437834 2.162961 -1.992599 1.126608 1.084907 0.929013 1.204960 0.367610 -5.749479 4.998995 -0.086056 8.645948 1.446726 0.222015 3.853668 0.000000 0.000000 0.000000 10.921477 4.743362 -37.776219 19.953664 -30.586386 5.507817 44.530697 13.823255 -55.299521 0.000000 0.000000 0.000000 -7.125000 0.000000 0.000000 177.921351 3.720344 -1.938869 0.000000 0.000000 0.000000 -9.615044 7.080713 31.454198 -16.101067 -25.657457 -3.689636 -24.456337 -17.387302 -47.732492 0.000000 0.000000 0.000000 7.125000 0.000000 0.000000 7.539399 -20.054117 9.733095
0.675437 18.091765 -31.058523 -2.474882 -2.200677 4.998643 0.000000 0.000000 0.000000 -20.660223 -5.827537 -8.902927 1.536591 7.825532 22.185337 0.607095 -0.790170 -14.469921 0.078781 -1.809894 -4.980679 0.000000 0.000000 0.000000 16.448568 7.432693 -20.163447 -5.487161 -13.912246 42.887062 -2.630321 4.333730 -29.696192 -0.107330 -2.112378 5.816272 -1.237487 1.720898 -5.124642 0.489418 2.344702 -2.176615 1.323090 1.180972 0.563825 1.527170 0.506679 -4.573680 5.202345 0.132699 7.837872 1.443867 0.315890 3.336880 0.000000 0.000000 0.000000 11.167744 5.884174 -37.198925 19.278514 -29.763193 5.168411 43.369799 12.475839 -54.191503 0.000000 0.000000 0.000000 -7.125000 0.000000 0.000000 178.034772 2.319402 -1.885238 0.000000 0.000000 0.000000 -9.499653 7.685790 30.847901 -16.181251 -25.765694 -3.724438 -24.598300 -17.315140 -47.193702 0.000000 0.000000 0.000000 7.125000 0.000000 0.000000 7.327640 -19.575991 9.419755
0.900715 18.090164 -31.105946 -3.082187 -3.219989 5.193246 0.000000 0.000000 0.000000 -20.743454 -4.482512 -10.076141 1.619494 8.023917 22.786828 0.617446 -1.489478 -14.408435 0.102748 -2.056609 -5.662484 0.000000 0.000000 0.000000 15.301056 7.920817 -21.367113 -5.834625 -14.266057 44.314137 -1.947114 5.361248 -25.227606 -0.010735 -0.357787 0.983450 -0.846330 1.848640 -5.087914 0.627519 2.494643 -2.016106 1.256194 1.252506 0.714129 1.533700 0.820521 -5.423200 5.419413 0.502530 7.896324 1.542063 0.520794 3.514729 0.000000 0.000000 0.000000 11.369309 5.573583 -35.342315 17.733325 -27.813647 4.424459 43.027990 13.736706 -54.334266 0.000000 0.000000 0.000000 -7.125000 0.000000 0.000000 177.867253 2.313891 -2.046296 0.000000 0.000000 0.000000 -9.348317 7.480062 30.162240 -15.995319 -25.514224 -3.643963 -26.392984 -18.381134 -48.300272 0.000000 0.000000 0.000000 7.125000 0.000000 0.000000 6.842411 -21.124535 8.896708
1.049302 18.092510 -31.139880 -3.258712 -3.773763 5.291005 0.000000 0.000000 0.000000 -21.032845 -3.554281 -10.473571 1.567959 7.901248 22.414520 0.609830 -1.869355 -14.230205 0.059118 -1.566633 -4.309562 0.000000 0.000000 0.000000 14.159219 9.011415 -21.570396 -6.019063 -14.446793 45.058334 -1.627350 6.586874 -22.882905 -0.295419 3.492301 -9.652678 -0.878152 1.928502 -5.146162 0.534827 2.603740 -1.962831 1.188352 1.305882 0.801089 1.713941 0.808217 -5.643974 5.062680 0.490413 7.929871 1.393434 0.509160 3.568371 0.000000 0.000000 0.000000 11.965072 5.301741 -33.687456 16.604270 -26.333052 3.910166 43.852699 15.995410 -54.984904 0.000000 0.000000 0.000000 -7.125000 0.000000 0.000000 177.852100 3.192289 -2.026441 0.000000 0.000000 0.000000 -8.954808 7.568516 29.649210 -16.022098 -25.550564 -3.655486 -24.680576 -17.478693 -49.095114 0.000000 0.000000 0.000000 7.125000 0.000000 0.000000 7.826072 -21.411849 10.214991
1.132520 18.090751 -31.135462 -3.300997 -3.527911 5.052683 0.000000 0.000000 0.000000 -21.276544 -3.661717 -10.089369 1.546056 7.848486 22.254890 0.606651 -2.083077 -14.147965 0.013599 -0.732494 -2.013130 0.000000 0.000000 0.000000 14.417832 11.636301 -19.186199 -5.702769 -14.133694 43.776326 -2.449158 3.730026 -28.722469 -0.123039 2.260463 -6.226010 -1.086323 1.777829 -5.387103 0.567971 2.414686 -1.987229 1.336503 1.211399 0.905089 1.588216 0.942199 -4.946482 4.538736 0.756746 7.795563 1.243391 0.604254 3.378962 0.000000 0.000000 0.000000 12.168348 5.556242 -32.701008 16.420561 -26.087531 3.829046 44.133362 16.265396 -54.981266 0.000000 0.000000 0.000000 -7.125000 0.000000 0.000000 177.939460 3.296868 -1.939935 0.000000 0.000000 0.000000 -8.965819 8.323513 29.793562 -15.683345 -25.089378 -3.510658 -26.799870 -17.862758 -48.566333 0.000000 0.000000 0.000000 7.125000 0.000000 0.000000 6.743089 -21.492318 8.790652
